<?xml version="1.0" encoding="UTF-8"?>
<svg viewBox="0 0 470 210" width="470" height="210" xmlns="http://www.w3.org/2000/svg" role="img" aria-label="BULLET rating history, currently 722, 53% win rate over 354 games">
<style>svg{font-family:-apple-system,BlinkMacSystemFont,'Segoe UI',Roboto,'Helvetica Neue',Arial,sans-serif}text{fill:#e9ecf7;white-space:pre}.bg{fill:#0c1225}.acc{fill:#8098ff}.win{fill:#1baf7a}.draw{fill:#8b8f96}.loss{fill:#d03b3b}.lbl{font-size:10px;font-weight:600;letter-spacing:.18em;fill:#8790ab}.cap{font-size:10.5px;font-weight:500;fill:#8790ab}.num{font-family:-apple-system,BlinkMacSystemFont,'Segoe UI',Roboto,'Helvetica Neue',Arial,sans-serif;font-weight:700;letter-spacing:-.02em}.tick{font-size:9px;font-weight:500;fill:#8790ab;opacity:.75}.dl{font-size:10px;font-weight:600}.rule{stroke:#1e2643;stroke-width:1;fill:none}.grid{stroke:#1e2643;stroke-width:1;fill:none;opacity:.7}.ln{fill:none;stroke:#8098ff;stroke-width:2;stroke-linecap:round;stroke-linejoin:round}.ring{stroke:#0c1225;stroke-width:2}.hollow{fill:none;stroke-width:1.5}.sq{fill:#e9ecf7;opacity:.035}</style>
<rect class="bg" width="470" height="210" rx="16"/>
<defs><linearGradient id="gp" x1="0" y1="0" x2="0" y2="1"><stop offset="0" stop-color="#e9ecf7" stop-opacity="0"/><stop offset="1" stop-color="#e9ecf7" stop-opacity=".05"/></linearGradient></defs><rect width="470" height="210" fill="url(#gp)"/>
<g class="acc" transform="translate(24.0,22.8) scale(0.2000)"><path d="M50 8c-8.8 0-16 7.2-16 16 0 5.2 2.5 9.9 6.4 12.8-2.1 1.2-3.9 2.8-5.3 4.7h29.8c-1.4-1.9-3.2-3.5-5.3-4.7C63.5 33.9 66 29.2 66 24c0-8.8-7.2-16-16-16zM37 46c.6 13.6-2.4 24.5-9 32.7h44c-6.6-8.2-9.6-19.1-9-32.7H37zM24 82h52c3.9 0 7 3.1 7 7v7H17v-7c0-3.9 3.1-7 7-7z"/></g>
<text class="lbl" x="50" y="39">BULLET</text>
<text class="cap" x="50" y="55">Rating history</text>
<text class="num" x="444" y="48" text-anchor="end" style="font-size:36px">722</text>
<path fill="#d03b3b" d="M414 67L418 61H410Z"/><text class="dl" x="444" y="68" text-anchor="end" fill="#d03b3b">-23</text>
<line class="grid" x1="60" y1="84" x2="444" y2="84"/><line class="grid" x1="60" y1="148" x2="444" y2="148"/>
<text class="tick" x="52" y="87" text-anchor="end">754</text>
<text class="tick" x="52" y="151" text-anchor="end">715</text>
<path class="ln" d="M60.0 102.1C63.4 103.9 73.5 112.5 80.2 112.7C86.9 112.9 93.7 107.0 100.4 103.4C107.2 99.9 113.9 91.5 120.6 91.5C127.4 91.5 134.1 103.2 140.8 103.4C147.6 103.6 154.3 92.8 161.1 92.8C167.8 92.8 174.5 103.9 181.3 103.4C188.0 103.0 194.7 90.9 201.5 90.2C208.2 89.5 214.9 96.1 221.7 99.5C228.4 102.8 235.2 106.5 241.9 110.0C248.6 113.6 255.4 117.3 262.1 120.6C268.8 123.9 275.6 129.9 282.3 129.9C289.1 129.9 295.8 120.6 302.5 120.6C309.3 120.6 316.0 130.1 322.7 129.9C329.5 129.7 336.2 122.6 342.9 119.3C349.7 116.0 356.4 109.8 363.2 110.0C369.9 110.3 376.6 117.1 383.4 120.6C390.1 124.2 396.8 127.7 403.6 131.2C410.3 134.7 417.1 141.6 423.8 141.8C430.5 142.0 440.6 134.1 444.0 132.5"/>
<circle class="acc ring" cx="444.0" cy="132.5" r="3.8"/>
<rect x="26.0" y="164" width="8.5" height="8.5" rx="1.5" fill="#8098ff"/><rect x="38.5" y="164.6" width="7.3" height="7.3" rx="1.2" fill="none" stroke="#8790ab" stroke-width="1.2" opacity=".55"/><rect x="49.8" y="164" width="8.5" height="8.5" rx="1.5" fill="#8098ff"/><rect x="61.7" y="164" width="8.5" height="8.5" rx="1.5" fill="#8098ff"/><rect x="74.2" y="164.6" width="7.3" height="7.3" rx="1.2" fill="none" stroke="#8790ab" stroke-width="1.2" opacity=".55"/><rect x="85.5" y="164" width="8.5" height="8.5" rx="1.5" fill="#8098ff"/><rect x="98.0" y="164.6" width="7.3" height="7.3" rx="1.2" fill="none" stroke="#8790ab" stroke-width="1.2" opacity=".55"/><rect x="109.3" y="164" width="8.5" height="8.5" rx="1.5" fill="#8098ff"/><rect x="121.8" y="164.6" width="7.3" height="7.3" rx="1.2" fill="none" stroke="#8790ab" stroke-width="1.2" opacity=".55"/><rect x="133.7" y="164.6" width="7.3" height="7.3" rx="1.2" fill="none" stroke="#8790ab" stroke-width="1.2" opacity=".55"/><rect x="145.6" y="164.6" width="7.3" height="7.3" rx="1.2" fill="none" stroke="#8790ab" stroke-width="1.2" opacity=".55"/><rect x="157.5" y="164.6" width="7.3" height="7.3" rx="1.2" fill="none" stroke="#8790ab" stroke-width="1.2" opacity=".55"/><rect x="168.8" y="164" width="8.5" height="8.5" rx="1.5" fill="#8098ff"/><rect x="181.3" y="164.6" width="7.3" height="7.3" rx="1.2" fill="none" stroke="#8790ab" stroke-width="1.2" opacity=".55"/><rect x="192.6" y="164" width="8.5" height="8.5" rx="1.5" fill="#8098ff"/><rect x="204.5" y="164" width="8.5" height="8.5" rx="1.5" fill="#8098ff"/><rect x="217.0" y="164.6" width="7.3" height="7.3" rx="1.2" fill="none" stroke="#8790ab" stroke-width="1.2" opacity=".55"/><rect x="228.9" y="164.6" width="7.3" height="7.3" rx="1.2" fill="none" stroke="#8790ab" stroke-width="1.2" opacity=".55"/><rect x="240.8" y="164.6" width="7.3" height="7.3" rx="1.2" fill="none" stroke="#8790ab" stroke-width="1.2" opacity=".55"/><rect x="252.1" y="164" width="8.5" height="8.5" rx="1.5" fill="#8098ff"/>
<rect x="364" y="165" width="8" height="8" rx="1.5" fill="#8098ff"/><text class="tick" x="376" y="172">W</text><rect x="392" y="165" width="8" height="8" rx="1.5" fill="#8098ff" opacity=".34"/><text class="tick" x="404" y="172">D</text><rect x="420.6" y="165.6" width="6.8" height="6.8" rx="1.2" fill="none" stroke="#8790ab" stroke-width="1.2" opacity=".55"/><text class="tick" x="432" y="172">L</text>
<line class="rule" x1="26" y1="186" x2="444" y2="186"/>
<text class="cap" x="26" y="202">53% win · 354 games</text>
<text class="cap" x="444" y="202" text-anchor="end">peak 801</text>
</svg>