<?xml version="1.0" encoding="UTF-8"?>
<svg viewBox="0 0 470 210" width="470" height="210" xmlns="http://www.w3.org/2000/svg" role="img" aria-label="RAPID rating history, currently 1185, 55% win rate over 686 games">
<style>svg{font-family:-apple-system,BlinkMacSystemFont,'Segoe UI',Roboto,'Helvetica Neue',Arial,sans-serif}text{fill:#f3e8d5;white-space:pre}.bg{fill:#241811}.acc{fill:#e7bd6b}.win{fill:#1baf7a}.draw{fill:#8b8f96}.loss{fill:#d03b3b}.lbl{font-size:10px;font-weight:600;letter-spacing:.18em;fill:#a5917a}.cap{font-size:10.5px;font-weight:500;fill:#a5917a}.num{font-family:Georgia,'Times New Roman',Times,serif;font-weight:700;letter-spacing:-.02em}.tick{font-size:9px;font-weight:500;fill:#a5917a;opacity:.75}.dl{font-size:10px;font-weight:600}.rule{stroke:#3a2a1e;stroke-width:1;fill:none}.grid{stroke:#3a2a1e;stroke-width:1;fill:none;opacity:.7}.ln{fill:none;stroke:#e7bd6b;stroke-width:2;stroke-linecap:round;stroke-linejoin:round}.ring{stroke:#241811;stroke-width:2}.hollow{fill:none;stroke-width:1.5}.sq{fill:#f3e8d5;opacity:.035}</style>
<rect class="bg" width="470" height="210" rx="16"/>
<rect class="sq" x="0" y="132" width="26" height="26"/><rect class="sq" x="52" y="132" width="26" height="26"/><rect class="sq" x="104" y="132" width="26" height="26"/><rect class="sq" x="156" y="132" width="26" height="26"/><rect class="sq" x="208" y="132" width="26" height="26"/><rect class="sq" x="260" y="132" width="26" height="26"/><rect class="sq" x="26" y="158" width="26" height="26"/><rect class="sq" x="78" y="158" width="26" height="26"/><rect class="sq" x="130" y="158" width="26" height="26"/><rect class="sq" x="182" y="158" width="26" height="26"/><rect class="sq" x="234" y="158" width="26" height="26"/><rect class="sq" x="286" y="158" width="26" height="26"/><rect class="sq" x="0" y="184" width="26" height="26"/><rect class="sq" x="52" y="184" width="26" height="26"/><rect class="sq" x="104" y="184" width="26" height="26"/><rect class="sq" x="156" y="184" width="26" height="26"/><rect class="sq" x="208" y="184" width="26" height="26"/><rect class="sq" x="260" y="184" width="26" height="26"/>
<g class="acc" transform="translate(24.0,22.8) scale(0.2000)"><path d="M18 22a6 6 0 1 1 0 12 6 6 0 0 1 0-12zm64 0a6 6 0 1 1 0 12 6 6 0 0 1 0-12zM50 6a6 6 0 1 1 0 12 6 6 0 0 1 0-12zM22 36l8 26h40l8-26-14 14-14-22-14 22zM28 66h44c1.6 0 3 1.3 3 3v5c0 1.6-1.4 3-3 3H28c-1.6 0-3-1.4-3-3v-5c0-1.7 1.4-3 3-3zM26 80h48c4.4 0 8 3.6 8 8v8H18v-8c0-4.4 3.6-8 8-8z"/></g>
<text class="lbl" x="50" y="39">RAPID</text>
<text class="cap" x="50" y="55">Rating history</text>
<text class="num" x="444" y="48" text-anchor="end" style="font-size:36px">1,185</text>
<path fill="#d03b3b" d="M414 67L418 61H410Z"/><text class="dl" x="444" y="68" text-anchor="end" fill="#d03b3b">-41</text>
<line class="grid" x1="60" y1="84" x2="444" y2="84"/><line class="grid" x1="60" y1="148" x2="444" y2="148"/>
<text class="tick" x="52" y="87" text-anchor="end">1,226</text>
<text class="tick" x="52" y="151" text-anchor="end">1,175</text>
<path class="ln" d="M60.0 90.2C63.4 92.0 73.5 101.0 80.2 101.3C86.9 101.7 93.7 92.2 100.4 92.2C107.2 92.2 113.9 99.0 120.6 101.3C127.4 103.7 134.1 106.4 140.8 106.4C147.6 106.4 154.3 103.3 161.1 101.3C167.8 99.3 174.5 93.9 181.3 94.2C188.0 94.6 194.7 100.3 201.5 103.3C208.2 106.4 214.9 109.6 221.7 112.5C228.4 115.3 235.2 120.4 241.9 120.6C248.6 120.7 255.4 113.3 262.1 113.5C268.8 113.6 275.6 119.2 282.3 121.6C289.1 123.9 295.8 127.8 302.5 127.6C309.3 127.5 316.0 120.6 322.7 120.6C329.5 120.6 336.2 126.8 342.9 127.6C349.7 128.5 356.4 126.3 363.2 125.6C369.9 124.9 376.6 122.4 383.4 123.6C390.1 124.8 396.8 129.7 403.6 132.7C410.3 135.7 417.1 142.0 423.8 141.8C430.5 141.6 440.6 133.4 444.0 131.7"/>
<circle class="acc ring" cx="444.0" cy="131.7" r="3.8"/>
<rect x="26.0" y="164" width="8.5" height="8.5" rx="1.5" fill="#e7bd6b"/><rect x="38.5" y="164.6" width="7.3" height="7.3" rx="1.2" fill="none" stroke="#a5917a" stroke-width="1.2" opacity=".55"/><rect x="49.8" y="164" width="8.5" height="8.5" rx="1.5" fill="#e7bd6b"/><rect x="62.3" y="164.6" width="7.3" height="7.3" rx="1.2" fill="none" stroke="#a5917a" stroke-width="1.2" opacity=".55"/><rect x="74.2" y="164.6" width="7.3" height="7.3" rx="1.2" fill="none" stroke="#a5917a" stroke-width="1.2" opacity=".55"/><rect x="85.5" y="164" width="8.5" height="8.5" rx="1.5" fill="#e7bd6b"/><rect x="97.4" y="164" width="8.5" height="8.5" rx="1.5" fill="#e7bd6b"/><rect x="109.9" y="164.6" width="7.3" height="7.3" rx="1.2" fill="none" stroke="#a5917a" stroke-width="1.2" opacity=".55"/><rect x="121.8" y="164.6" width="7.3" height="7.3" rx="1.2" fill="none" stroke="#a5917a" stroke-width="1.2" opacity=".55"/><rect x="133.7" y="164.6" width="7.3" height="7.3" rx="1.2" fill="none" stroke="#a5917a" stroke-width="1.2" opacity=".55"/><rect x="145.0" y="164" width="8.5" height="8.5" rx="1.5" fill="#e7bd6b"/><rect x="157.5" y="164.6" width="7.3" height="7.3" rx="1.2" fill="none" stroke="#a5917a" stroke-width="1.2" opacity=".55"/><rect x="169.4" y="164.6" width="7.3" height="7.3" rx="1.2" fill="none" stroke="#a5917a" stroke-width="1.2" opacity=".55"/><rect x="180.7" y="164" width="8.5" height="8.5" rx="1.5" fill="#e7bd6b"/><rect x="193.2" y="164.6" width="7.3" height="7.3" rx="1.2" fill="none" stroke="#a5917a" stroke-width="1.2" opacity=".55"/><rect x="204.5" y="164" width="8.5" height="8.5" rx="1.5" fill="#e7bd6b" opacity=".34"/><rect x="216.4" y="164" width="8.5" height="8.5" rx="1.5" fill="#e7bd6b"/><rect x="228.9" y="164.6" width="7.3" height="7.3" rx="1.2" fill="none" stroke="#a5917a" stroke-width="1.2" opacity=".55"/><rect x="240.8" y="164.6" width="7.3" height="7.3" rx="1.2" fill="none" stroke="#a5917a" stroke-width="1.2" opacity=".55"/><rect x="252.1" y="164" width="8.5" height="8.5" rx="1.5" fill="#e7bd6b"/>
<rect x="364" y="165" width="8" height="8" rx="1.5" fill="#e7bd6b"/><text class="tick" x="376" y="172">W</text><rect x="392" y="165" width="8" height="8" rx="1.5" fill="#e7bd6b" opacity=".34"/><text class="tick" x="404" y="172">D</text><rect x="420.6" y="165.6" width="6.8" height="6.8" rx="1.2" fill="none" stroke="#a5917a" stroke-width="1.2" opacity=".55"/><text class="tick" x="432" y="172">L</text>
<line class="rule" x1="26" y1="186" x2="444" y2="186"/>
<text class="cap" x="26" y="202">55% win · 686 games</text>
<text class="cap" x="444" y="202" text-anchor="end">peak 1,235</text>
</svg>