<?xml version="1.0" encoding="UTF-8"?>
<svg viewBox="0 0 470 210" width="470" height="210" xmlns="http://www.w3.org/2000/svg" role="img" aria-label="RAPID rating history, currently 1243, 56% win rate over 705 games">
<style>svg{font-family:-apple-system,BlinkMacSystemFont,'Segoe UI',Roboto,'Helvetica Neue',Arial,sans-serif}text{fill:#f3e8d5;white-space:pre}.bg{fill:#241811}.acc{fill:#e7bd6b}.win{fill:#1baf7a}.draw{fill:#8b8f96}.loss{fill:#d03b3b}.lbl{font-size:10px;font-weight:600;letter-spacing:.18em;fill:#a5917a}.cap{font-size:10.5px;font-weight:500;fill:#a5917a}.num{font-family:Georgia,'Times New Roman',Times,serif;font-weight:700;letter-spacing:-.02em}.tick{font-size:9px;font-weight:500;fill:#a5917a;opacity:.75}.dl{font-size:10px;font-weight:600}.rule{stroke:#3a2a1e;stroke-width:1;fill:none}.grid{stroke:#3a2a1e;stroke-width:1;fill:none;opacity:.7}.ln{fill:none;stroke:#e7bd6b;stroke-width:2;stroke-linecap:round;stroke-linejoin:round}.ring{stroke:#241811;stroke-width:2}.hollow{fill:none;stroke-width:1.5}.sq{fill:#f3e8d5;opacity:.035}</style>
<rect class="bg" width="470" height="210" rx="16"/>
<rect class="sq" x="0" y="132" width="26" height="26"/><rect class="sq" x="52" y="132" width="26" height="26"/><rect class="sq" x="104" y="132" width="26" height="26"/><rect class="sq" x="156" y="132" width="26" height="26"/><rect class="sq" x="208" y="132" width="26" height="26"/><rect class="sq" x="260" y="132" width="26" height="26"/><rect class="sq" x="26" y="158" width="26" height="26"/><rect class="sq" x="78" y="158" width="26" height="26"/><rect class="sq" x="130" y="158" width="26" height="26"/><rect class="sq" x="182" y="158" width="26" height="26"/><rect class="sq" x="234" y="158" width="26" height="26"/><rect class="sq" x="286" y="158" width="26" height="26"/><rect class="sq" x="0" y="184" width="26" height="26"/><rect class="sq" x="52" y="184" width="26" height="26"/><rect class="sq" x="104" y="184" width="26" height="26"/><rect class="sq" x="156" y="184" width="26" height="26"/><rect class="sq" x="208" y="184" width="26" height="26"/><rect class="sq" x="260" y="184" width="26" height="26"/>
<g class="acc" transform="translate(24.0,22.8) scale(0.2000)"><path d="M18 22a6 6 0 1 1 0 12 6 6 0 0 1 0-12zm64 0a6 6 0 1 1 0 12 6 6 0 0 1 0-12zM50 6a6 6 0 1 1 0 12 6 6 0 0 1 0-12zM22 36l8 26h40l8-26-14 14-14-22-14 22zM28 66h44c1.6 0 3 1.3 3 3v5c0 1.6-1.4 3-3 3H28c-1.6 0-3-1.4-3-3v-5c0-1.7 1.4-3 3-3zM26 80h48c4.4 0 8 3.6 8 8v8H18v-8c0-4.4 3.6-8 8-8z"/></g>
<text class="lbl" x="50" y="39">RAPID</text>
<text class="cap" x="50" y="55">Rating history</text>
<text class="num" x="444" y="48" text-anchor="end" style="font-size:36px">1,243</text>
<path fill="#1baf7a" d="M414 61L418 67H410Z"/><text class="dl" x="444" y="68" text-anchor="end" fill="#1baf7a">+58</text>
<line class="grid" x1="60" y1="84" x2="444" y2="84"/><line class="grid" x1="60" y1="148" x2="444" y2="148"/>
<text class="tick" x="52" y="87" text-anchor="end">1,243</text>
<text class="tick" x="52" y="151" text-anchor="end">1,185</text>
<path class="ln" d="M60.0 141.8C63.4 140.8 73.5 135.7 80.2 135.6C86.9 135.4 93.7 141.2 100.4 140.9C107.2 140.6 113.9 133.9 120.6 133.8C127.4 133.6 134.1 140.2 140.8 140.0C147.6 139.9 154.3 135.6 161.1 132.9C167.8 130.2 174.5 126.7 181.3 124.0C188.0 121.3 194.7 116.4 201.5 116.9C208.2 117.3 214.9 126.4 221.7 126.7C228.4 127.0 235.2 121.2 241.9 118.7C248.6 116.1 255.4 111.6 262.1 111.6C268.8 111.6 275.6 118.7 282.3 118.7C289.1 118.7 295.8 113.9 302.5 111.6C309.3 109.2 316.0 104.4 322.7 104.4C329.5 104.4 336.2 109.2 342.9 111.6C349.7 113.9 356.4 118.7 363.2 118.7C369.9 118.7 376.6 113.9 383.4 111.6C390.1 109.2 396.8 106.8 403.6 104.4C410.3 102.1 417.1 99.7 423.8 97.3C430.5 94.9 440.6 91.4 444.0 90.2"/>
<circle class="acc ring" cx="444.0" cy="90.2" r="3.8"/>
<rect x="26.0" y="164" width="8.5" height="8.5" rx="1.5" fill="#e7bd6b"/><rect x="37.9" y="164" width="8.5" height="8.5" rx="1.5" fill="#e7bd6b"/><rect x="50.4" y="164.6" width="7.3" height="7.3" rx="1.2" fill="none" stroke="#a5917a" stroke-width="1.2" opacity=".55"/><rect x="61.7" y="164" width="8.5" height="8.5" rx="1.5" fill="#e7bd6b"/><rect x="74.2" y="164.6" width="7.3" height="7.3" rx="1.2" fill="none" stroke="#a5917a" stroke-width="1.2" opacity=".55"/><rect x="85.5" y="164" width="8.5" height="8.5" rx="1.5" fill="#e7bd6b"/><rect x="97.4" y="164" width="8.5" height="8.5" rx="1.5" fill="#e7bd6b"/><rect x="109.3" y="164" width="8.5" height="8.5" rx="1.5" fill="#e7bd6b"/><rect x="121.8" y="164.6" width="7.3" height="7.3" rx="1.2" fill="none" stroke="#a5917a" stroke-width="1.2" opacity=".55"/><rect x="133.1" y="164" width="8.5" height="8.5" rx="1.5" fill="#e7bd6b"/><rect x="145.0" y="164" width="8.5" height="8.5" rx="1.5" fill="#e7bd6b"/><rect x="157.5" y="164.6" width="7.3" height="7.3" rx="1.2" fill="none" stroke="#a5917a" stroke-width="1.2" opacity=".55"/><rect x="168.8" y="164" width="8.5" height="8.5" rx="1.5" fill="#e7bd6b"/><rect x="180.7" y="164" width="8.5" height="8.5" rx="1.5" fill="#e7bd6b"/><rect x="193.2" y="164.6" width="7.3" height="7.3" rx="1.2" fill="none" stroke="#a5917a" stroke-width="1.2" opacity=".55"/><rect x="205.1" y="164.6" width="7.3" height="7.3" rx="1.2" fill="none" stroke="#a5917a" stroke-width="1.2" opacity=".55"/><rect x="216.4" y="164" width="8.5" height="8.5" rx="1.5" fill="#e7bd6b"/><rect x="228.3" y="164" width="8.5" height="8.5" rx="1.5" fill="#e7bd6b"/><rect x="240.2" y="164" width="8.5" height="8.5" rx="1.5" fill="#e7bd6b"/><rect x="252.1" y="164" width="8.5" height="8.5" rx="1.5" fill="#e7bd6b"/>
<rect x="364" y="165" width="8" height="8" rx="1.5" fill="#e7bd6b"/><text class="tick" x="376" y="172">W</text><rect x="392" y="165" width="8" height="8" rx="1.5" fill="#e7bd6b" opacity=".34"/><text class="tick" x="404" y="172">D</text><rect x="420.6" y="165.6" width="6.8" height="6.8" rx="1.2" fill="none" stroke="#a5917a" stroke-width="1.2" opacity=".55"/><text class="tick" x="432" y="172">L</text>
<line class="rule" x1="26" y1="186" x2="444" y2="186"/>
<text class="cap" x="26" y="202">56% win · 705 games</text>
<text class="cap" x="444" y="202" text-anchor="end">peak 1,243</text>
</svg>