<?xml version="1.0" encoding="UTF-8"?>
<svg viewBox="0 0 470 210" width="470" height="210" xmlns="http://www.w3.org/2000/svg" role="img" aria-label="BLITZ rating history, currently 786, 51% win rate over 708 games">
<style>svg{font-family:-apple-system,BlinkMacSystemFont,'Segoe UI',Roboto,'Helvetica Neue',Arial,sans-serif}text{fill:#14161a;white-space:pre}.bg{fill:#f7f7f4}.acc{fill:#4a7c2a}.win{fill:#0d8659}.draw{fill:#7c7f85}.loss{fill:#c0332f}.lbl{font-size:10px;font-weight:600;letter-spacing:.18em;fill:#6b7078}.cap{font-size:10.5px;font-weight:500;fill:#6b7078}.num{font-family:-apple-system,BlinkMacSystemFont,'Segoe UI',Roboto,'Helvetica Neue',Arial,sans-serif;font-weight:700;letter-spacing:-.02em}.tick{font-size:9px;font-weight:500;fill:#6b7078;opacity:.75}.dl{font-size:10px;font-weight:600}.rule{stroke:#e2e2dc;stroke-width:1;fill:none}.grid{stroke:#e2e2dc;stroke-width:1;fill:none;opacity:.7}.ln{fill:none;stroke:#4a7c2a;stroke-width:2;stroke-linecap:round;stroke-linejoin:round}.ring{stroke:#f7f7f4;stroke-width:2}.hollow{fill:none;stroke-width:1.5}.sq{fill:#14161a;opacity:.035}</style>
<rect class="bg" width="470" height="210" rx="16"/>

<g class="acc" transform="translate(24.0,22.8) scale(0.2000)"><path fill-rule="evenodd" d="M66 5l-4 17c9 10 16 27 16 58H34c0-8-1-14-4-20-6 3-13 2-16-2-3-3-3-8 0-12 3-5 6-10 10-14 6-6 13-10 21-11 7-1 14 0 21 4zM37.4 39a3.4 3.4 0 1 0-6.8 0 3.4 3.4 0 1 0 6.8 0zM24 82h52c3.9 0 7 3.1 7 7v7H17v-7c0-3.9 3.1-7 7-7z"/></g>
<text class="lbl" x="50" y="39">BLITZ</text>
<text class="cap" x="50" y="55">Rating history</text>
<text class="num" x="444" y="48" text-anchor="end" style="font-size:36px">786</text>
<path fill="#0d8659" d="M414 61L418 67H410Z"/><text class="dl" x="444" y="68" text-anchor="end" fill="#0d8659">+35</text>
<line class="grid" x1="60" y1="84" x2="444" y2="84"/><line class="grid" x1="60" y1="148" x2="444" y2="148"/>
<text class="tick" x="52" y="87" text-anchor="end">800</text>
<text class="tick" x="52" y="151" text-anchor="end">751</text>
<path class="ln" d="M60.0 141.8C63.4 140.4 73.5 136.0 80.2 133.4C86.9 130.7 93.7 129.0 100.4 126.0C107.2 123.0 113.9 118.6 120.6 115.5C127.4 112.3 134.1 107.0 140.8 107.0C147.6 107.0 154.3 115.5 161.1 115.5C167.8 115.5 174.5 109.9 181.3 107.0C188.0 104.2 194.7 101.4 201.5 98.6C208.2 95.8 214.9 91.6 221.7 90.2C228.4 88.8 235.2 88.8 241.9 90.2C248.6 91.6 255.4 95.8 262.1 98.6C268.8 101.4 275.6 104.2 282.3 107.0C289.1 109.9 295.8 115.5 302.5 115.5C309.3 115.5 316.0 110.0 322.7 107.0C329.5 104.1 336.2 97.9 342.9 97.6C349.7 97.2 356.4 105.1 363.2 104.9C369.9 104.8 376.6 96.5 383.4 96.5C390.1 96.5 396.8 102.0 403.6 104.9C410.3 107.9 417.1 114.4 423.8 114.4C430.5 114.4 440.6 106.5 444.0 104.9"/>
<circle class="acc ring" cx="444.0" cy="104.9" r="3.8"/>
<rect x="26.0" y="164" width="8.5" height="8.5" rx="1.5" fill="#4a7c2a"/><rect x="37.9" y="164" width="8.5" height="8.5" rx="1.5" fill="#4a7c2a"/><rect x="49.8" y="164" width="8.5" height="8.5" rx="1.5" fill="#4a7c2a"/><rect x="61.7" y="164" width="8.5" height="8.5" rx="1.5" fill="#4a7c2a"/><rect x="73.6" y="164" width="8.5" height="8.5" rx="1.5" fill="#4a7c2a"/><rect x="86.1" y="164.6" width="7.3" height="7.3" rx="1.2" fill="none" stroke="#6b7078" stroke-width="1.2" opacity=".55"/><rect x="97.4" y="164" width="8.5" height="8.5" rx="1.5" fill="#4a7c2a"/><rect x="109.3" y="164" width="8.5" height="8.5" rx="1.5" fill="#4a7c2a"/><rect x="121.2" y="164" width="8.5" height="8.5" rx="1.5" fill="#4a7c2a"/><rect x="133.1" y="164" width="8.5" height="8.5" rx="1.5" fill="#4a7c2a" opacity=".34"/><rect x="145.6" y="164.6" width="7.3" height="7.3" rx="1.2" fill="none" stroke="#6b7078" stroke-width="1.2" opacity=".55"/><rect x="157.5" y="164.6" width="7.3" height="7.3" rx="1.2" fill="none" stroke="#6b7078" stroke-width="1.2" opacity=".55"/><rect x="169.4" y="164.6" width="7.3" height="7.3" rx="1.2" fill="none" stroke="#6b7078" stroke-width="1.2" opacity=".55"/><rect x="180.7" y="164" width="8.5" height="8.5" rx="1.5" fill="#4a7c2a"/><rect x="192.6" y="164" width="8.5" height="8.5" rx="1.5" fill="#4a7c2a"/><rect x="205.1" y="164.6" width="7.3" height="7.3" rx="1.2" fill="none" stroke="#6b7078" stroke-width="1.2" opacity=".55"/><rect x="216.4" y="164" width="8.5" height="8.5" rx="1.5" fill="#4a7c2a"/><rect x="228.9" y="164.6" width="7.3" height="7.3" rx="1.2" fill="none" stroke="#6b7078" stroke-width="1.2" opacity=".55"/><rect x="240.8" y="164.6" width="7.3" height="7.3" rx="1.2" fill="none" stroke="#6b7078" stroke-width="1.2" opacity=".55"/><rect x="252.1" y="164" width="8.5" height="8.5" rx="1.5" fill="#4a7c2a"/>
<rect x="364" y="165" width="8" height="8" rx="1.5" fill="#4a7c2a"/><text class="tick" x="376" y="172">W</text><rect x="392" y="165" width="8" height="8" rx="1.5" fill="#4a7c2a" opacity=".34"/><text class="tick" x="404" y="172">D</text><rect x="420.6" y="165.6" width="6.8" height="6.8" rx="1.2" fill="none" stroke="#6b7078" stroke-width="1.2" opacity=".55"/><text class="tick" x="432" y="172">L</text>
<line class="rule" x1="26" y1="186" x2="444" y2="186"/>
<text class="cap" x="26" y="202">51% win · 708 games</text>
<text class="cap" x="444" y="202" text-anchor="end">peak 937</text>
</svg>