<?xml version="1.0" encoding="UTF-8"?>
<svg viewBox="0 0 470 210" width="470" height="210" xmlns="http://www.w3.org/2000/svg" role="img" aria-label="RAPID rating history">
<defs><filter id="bF2" x="-60%" y="-60%" width="220%" height="220%"><feGaussianBlur stdDeviation="16"/></filter></defs>
<style>text{fill:#eef1f3}.bg{fill:#0d0f13}.acc{fill:#9bd35e}.ln{stroke:#9bd35e}.area{fill:#9bd35e;opacity:.12}.peak{stroke:#9bd35e;opacity:.3}.chip{fill:#9bd35e;opacity:.14}.down{fill:#d9694a}svg{font-family:'Space Grotesk',system-ui,sans-serif}.lbl{font-weight:600;font-size:11px;letter-spacing:.16em}.big{font-weight:700;font-size:34px;letter-spacing:-.02em}.mid{font-weight:600;font-size:14px}.mut{font-weight:500;font-size:11px;opacity:.5}.ser{font-family:'Instrument Serif',serif;font-weight:400;letter-spacing:0}.mono{font-family:'JetBrains Mono',monospace}.ln{fill:none;stroke-width:2.5;stroke-linecap:round;stroke-linejoin:round}.thin{stroke-width:1.6}.draw{stroke-dasharray:1200;stroke-dashoffset:1200;animation:draw 2.3s cubic-bezier(.6,.05,.2,1) forwards .25s}.dot{animation:pulse 2s ease-in-out infinite}.glow{animation:glow 3.4s ease-in-out infinite}.float{animation:float 6.5s ease-in-out infinite}.shim{animation:shim 3s ease-in-out infinite}@keyframes draw{to{stroke-dashoffset:0}}@keyframes pulse{0%,100%{r:4.5;opacity:1}50%{r:8;opacity:.45}}@keyframes glow{0%,100%{opacity:.14}50%{opacity:.34}}@keyframes float{0%,100%{transform:translateY(0)}50%{transform:translateY(-7px)}}@keyframes shim{0%,100%{opacity:.5}50%{opacity:1}}</style>
<rect class="bg" width="470" height="210" rx="20"/>
<ellipse class="acc glow" cx="60" cy="150" rx="60" ry="60" filter="url(#bF2)"/>
<text class="acc float ser" x="58" y="188" text-anchor="middle" style="font-size:120px">♛</text>
<text class="mut" x="150" y="40">RAPID RATING</text>
<text class="big" x="150" y="80" style="font-size:38px">1224</text>
<text class="acc mid" x="270" y="80">▲ +10</text>
<polygon class="area" points="150.0,136.5 165.6,125.2 181.2,113.9 196.7,125.2 212.3,136.5 227.9,136.5 243.5,147.9 259.1,158.0 274.6,168.1 290.2,178.1 305.8,168.1 321.4,156.7 336.9,147.9 352.5,136.5 368.1,127.7 383.7,141.6 399.3,131.5 414.8,121.4 430.4,135.3 446.0,123.9 446.0,182 150.0,182"/>
<polyline class="ln draw" points="150.0,136.5 165.6,125.2 181.2,113.9 196.7,125.2 212.3,136.5 227.9,136.5 243.5,147.9 259.1,158.0 274.6,168.1 290.2,178.1 305.8,168.1 321.4,156.7 336.9,147.9 352.5,136.5 368.1,127.7 383.7,141.6 399.3,131.5 414.8,121.4 430.4,135.3 446.0,123.9"/>
<circle class="acc dot" cx="446.0" cy="123.9" r="4.5"/>
<text class="mut" x="150" y="202">Peak 1235 · 56% win · 669 games</text>
</svg>