<svg width="480" height="240" xmlns="http://www.w3.org/2000/svg">
  <rect width="480" height="240" fill="#ffffff" rx="8"/>
  <rect x="1" y="1" width="478" height="238" fill="none" stroke="#d0d7de" rx="8"/>

  <!-- Header -->
  <text x="24" y="28" fill="#1f2328" font-size="14" font-weight="600" font-family="Segoe UI, Arial, sans-serif">
    Rapid Rating
  </text>
  <text x="456" y="28" fill="#bf5700" font-size="14" font-weight="600" font-family="Segoe UI, Arial, sans-serif" text-anchor="end">
    1162 (+83)
  </text>

  <!-- Grid -->
  
  <line x1="48" y1="48" x2="456" y2="48" stroke="#d0d7de" stroke-width="1"/>
  <text x="40" y="52" fill="#8c959f" font-size="10" font-family="Segoe UI, Arial, sans-serif" text-anchor="end">1198</text>
  
  <line x1="48" y1="86" x2="456" y2="86" stroke="#d0d7de" stroke-width="1"/>
  <text x="40" y="90" fill="#8c959f" font-size="10" font-family="Segoe UI, Arial, sans-serif" text-anchor="end">1165</text>
  
  <line x1="48" y1="124" x2="456" y2="124" stroke="#d0d7de" stroke-width="1"/>
  <text x="40" y="128" fill="#8c959f" font-size="10" font-family="Segoe UI, Arial, sans-serif" text-anchor="end">1133</text>
  
  <line x1="48" y1="162" x2="456" y2="162" stroke="#d0d7de" stroke-width="1"/>
  <text x="40" y="166" fill="#8c959f" font-size="10" font-family="Segoe UI, Arial, sans-serif" text-anchor="end">1101</text>
  
  <line x1="48" y1="200" x2="456" y2="200" stroke="#d0d7de" stroke-width="1"/>
  <text x="40" y="204" fill="#8c959f" font-size="10" font-family="Segoe UI, Arial, sans-serif" text-anchor="end">1068</text>
  

  <!-- Area -->
  <polygon points="48,200 48,187.33333333333337 82,160.35802469135805 116,133.38271604938274 150,108.75308641975307 184,84.12345679012343 218,60.66666666666663 252,84.12345679012343 286,105.23456790123456 320,82.95061728395059 354,101.71604938271604 388,119.30864197530863 422,114.61728395061728 456,89.98765432098764 456,200" fill="#bf5700" opacity="0.15"/>

  <!-- Line -->
  <polyline points="48,187.33333333333337 82,160.35802469135805 116,133.38271604938274 150,108.75308641975307 184,84.12345679012343 218,60.66666666666663 252,84.12345679012343 286,105.23456790123456 320,82.95061728395059 354,101.71604938271604 388,119.30864197530863 422,114.61728395061728 456,89.98765432098764" fill="none" stroke="#bf5700" stroke-width="2" stroke-linecap="round" stroke-linejoin="round"/>

  <!-- Points -->
  <circle cx="48" cy="187.33333333333337" r="3" fill="#ffffff" stroke="#bf5700" stroke-width="2"/>
  <circle cx="82" cy="160.35802469135805" r="3" fill="#ffffff" stroke="#bf5700" stroke-width="2"/>
  <circle cx="116" cy="133.38271604938274" r="3" fill="#ffffff" stroke="#bf5700" stroke-width="2"/>
  <circle cx="150" cy="108.75308641975307" r="3" fill="#ffffff" stroke="#bf5700" stroke-width="2"/>
  <circle cx="184" cy="84.12345679012343" r="3" fill="#ffffff" stroke="#bf5700" stroke-width="2"/>
  <circle cx="218" cy="60.66666666666663" r="3" fill="#ffffff" stroke="#bf5700" stroke-width="2"/>
  <circle cx="252" cy="84.12345679012343" r="3" fill="#ffffff" stroke="#bf5700" stroke-width="2"/>
  <circle cx="286" cy="105.23456790123456" r="3" fill="#ffffff" stroke="#bf5700" stroke-width="2"/>
  <circle cx="320" cy="82.95061728395059" r="3" fill="#ffffff" stroke="#bf5700" stroke-width="2"/>
  <circle cx="354" cy="101.71604938271604" r="3" fill="#ffffff" stroke="#bf5700" stroke-width="2"/>
  <circle cx="388" cy="119.30864197530863" r="3" fill="#ffffff" stroke="#bf5700" stroke-width="2"/>
  <circle cx="422" cy="114.61728395061728" r="3" fill="#ffffff" stroke="#bf5700" stroke-width="2"/>
  <circle cx="456" cy="89.98765432098764" r="3" fill="#ffffff" stroke="#bf5700" stroke-width="2"/>

  <!-- Footer -->
  <text x="24" y="228" fill="#8c959f" font-size="10" font-family="Segoe UI, Arial, sans-serif">
    @bappozl
  </text>
  <text x="456" y="228" fill="#8c959f" font-size="10" font-family="Segoe UI, Arial, sans-serif" text-anchor="end">
    Last 13 games
  </text>
</svg>