<?xml version="1.0" encoding="UTF-8"?>
<svg viewBox="0 0 340 210" width="340" height="210" xmlns="http://www.w3.org/2000/svg" role="img" aria-label="DAILY rating 313, 0% win rate over 1 games">
<style>svg{font-family:-apple-system,BlinkMacSystemFont,'Segoe UI',Roboto,'Helvetica Neue',Arial,sans-serif}text{fill:#eef2e4;white-space:pre}.bg{fill:#14170f}.acc{fill:#7fa650}.win{fill:#1baf7a}.draw{fill:#8b8f96}.loss{fill:#d03b3b}.lbl{font-size:10px;font-weight:600;letter-spacing:.18em;fill:#8b937c}.cap{font-size:10.5px;font-weight:500;fill:#8b937c}.num{font-family:-apple-system,BlinkMacSystemFont,'Segoe UI',Roboto,'Helvetica Neue',Arial,sans-serif;font-weight:700;letter-spacing:-.02em}.tick{font-size:9px;font-weight:500;fill:#8b937c;opacity:.75}.dl{font-size:10px;font-weight:600}.rule{stroke:#252a1c;stroke-width:1;fill:none}.grid{stroke:#252a1c;stroke-width:1;fill:none;opacity:.7}.ln{fill:none;stroke:#7fa650;stroke-width:2;stroke-linecap:round;stroke-linejoin:round}.ring{stroke:#14170f;stroke-width:2}.hollow{fill:none;stroke-width:1.5}.sq{fill:#eef2e4;opacity:.035}</style>
<rect class="bg" width="340" height="210" rx="16"/>
<rect class="sq" x="0" y="132" width="26" height="26"/><rect class="sq" x="52" y="132" width="26" height="26"/><rect class="sq" x="104" y="132" width="26" height="26"/><rect class="sq" x="156" y="132" width="26" height="26"/><rect class="sq" x="208" y="132" width="26" height="26"/><rect class="sq" x="260" y="132" width="26" height="26"/><rect class="sq" x="26" y="158" width="26" height="26"/><rect class="sq" x="78" y="158" width="26" height="26"/><rect class="sq" x="130" y="158" width="26" height="26"/><rect class="sq" x="182" y="158" width="26" height="26"/><rect class="sq" x="234" y="158" width="26" height="26"/><rect class="sq" x="286" y="158" width="26" height="26"/><rect class="sq" x="0" y="184" width="26" height="26"/><rect class="sq" x="52" y="184" width="26" height="26"/><rect class="sq" x="104" y="184" width="26" height="26"/><rect class="sq" x="156" y="184" width="26" height="26"/><rect class="sq" x="208" y="184" width="26" height="26"/><rect class="sq" x="260" y="184" width="26" height="26"/>
<g class="acc" transform="translate(23.0,21.8) scale(0.2000)"><path d="M46 3h8v7h8v8h-8v9h-8v-9h-8v-8h8z"/><path d="M28 34c7-2 14-3 22-3s15 1 22 3c4 8 2 20-6 28H34c-8-8-10-20-6-28z"/><path d="M33 65h34a2.5 2.5 0 0 1 0 5H33a2.5 2.5 0 0 1 0-5z"/><path d="M33 73h34l5 6H28z"/><path d="M24 82h52a7 7 0 0 1 7 7v7H17v-7a7 7 0 0 1 7-7z"/></g>
<text class="lbl" x="49" y="38">DAILY</text>
<text class="num" x="26" y="96" style="font-size:55px">313</text>
<text class="cap" x="26" y="122">no recent games</text>
<rect x="26.0" y="134" width="288.0" height="3" rx="1.5" fill="#7fa650" opacity="0.15"/>

<line class="rule" x1="26" y1="188" x2="314" y2="188"/>
<text class="cap" x="26" y="203">0% win · 1 game</text>
<text class="cap" x="314" y="203" text-anchor="end">peak —</text>
</svg>