<?xml version="1.0" encoding="UTF-8"?>
<svg viewBox="0 0 380 210" width="380" height="210" xmlns="http://www.w3.org/2000/svg" role="img" aria-label="BLITZ hero">
<defs>
<filter id="bF" x="-60%" y="-60%" width="220%" height="220%"><feGaussianBlur stdDeviation="22"/></filter>
<linearGradient id="pF" x1="0" y1="0" x2="0" y2="1"><stop offset="0" stop-color="#c7ef92"/><stop offset="1" stop-color="#79b843"/></linearGradient>
</defs>
<style>text{fill:#eef1f3}.bg{fill:#0d0f13}.acc{fill:#9bd35e}.ln{stroke:#9bd35e}.area{fill:#9bd35e;opacity:.12}.peak{stroke:#9bd35e;opacity:.3}.chip{fill:#9bd35e;opacity:.14}.down{fill:#d9694a}svg{font-family:'Space Grotesk',system-ui,sans-serif}.lbl{font-weight:600;font-size:11px;letter-spacing:.16em}.big{font-weight:700;font-size:34px;letter-spacing:-.02em}.mid{font-weight:600;font-size:14px}.mut{font-weight:500;font-size:11px;opacity:.5}.ser{font-family:'Instrument Serif',serif;font-weight:400;letter-spacing:0}.mono{font-family:'JetBrains Mono',monospace}.ln{fill:none;stroke-width:2.5;stroke-linecap:round;stroke-linejoin:round}.thin{stroke-width:1.6}.draw{stroke-dasharray:1;stroke-dashoffset:0;animation:draw 2.3s cubic-bezier(.6,.05,.2,1) .25s backwards}.dot{animation:pulse 2s ease-in-out infinite}.glow{animation:glow 3.4s ease-in-out infinite}.float{animation:float 6.5s ease-in-out infinite}.shim{animation:shim 3s ease-in-out infinite}@keyframes draw{from{stroke-dashoffset:1}to{stroke-dashoffset:0}}@keyframes pulse{0%,100%{r:4.5;opacity:1}50%{r:8;opacity:.45}}@keyframes glow{0%,100%{opacity:.14}50%{opacity:.34}}@keyframes float{0%,100%{transform:translateY(0)}50%{transform:translateY(-7px)}}@keyframes shim{0%,100%{opacity:.5}50%{opacity:1}}</style>
<rect class="bg" width="380" height="210" rx="20"/>
<ellipse class="acc glow" cx="120" cy="120" rx="96" ry="88" filter="url(#bF)"/>
<g class="float" fill="url(#pF)" transform="translate(41.0,44.3) scale(1.5800)"><path fill-rule="evenodd" d="M66 5l-4 17c9 10 16 27 16 58H34c0-8-1-14-4-20-6 3-13 2-16-2-3-3-3-8 0-12 3-5 6-10 10-14 6-6 13-10 21-11 7-1 14 0 21 4zM37.4 39a3.4 3.4 0 1 0-6.8 0 3.4 3.4 0 1 0 6.8 0zM24 82h52c3.9 0 7 3.1 7 7v7H17v-7c0-3.9 3.1-7 7-7z"/></g>
<text class="mut" x="238" y="58">BLITZ</text>
<text class="big" x="238" y="104" style="font-size:52px">720</text>
<text class="acc mid" x="238" y="130">▲ +50</text>
<line class="peak" x1="238" y1="150" x2="352" y2="150" stroke-dasharray="4 5"/>
<text class="mut" x="238" y="176">Peak 937 · 51% win</text>
<text class="mut" x="238" y="194">643 games</text>
</svg>