<?xml version="1.0" encoding="UTF-8"?>
<svg viewBox="0 0 470 210" width="470" height="210" xmlns="http://www.w3.org/2000/svg" role="img" aria-label="BULLET rating history, currently 702, 52% win rate over 388 games">
<style>svg{font-family:ui-monospace,'SF Mono',Menlo,Consolas,'Liberation Mono',monospace}text{fill:#c8e6d0;white-space:pre}.bg{fill:#050806}.acc{fill:#35d67a}.win{fill:#1baf7a}.draw{fill:#8b8f96}.loss{fill:#d03b3b}.lbl{font-size:10px;font-weight:600;letter-spacing:.18em;fill:#6f8a78}.cap{font-size:10.5px;font-weight:500;fill:#6f8a78}.num{font-family:ui-monospace,'SF Mono',Menlo,Consolas,'Liberation Mono',monospace;font-weight:700;letter-spacing:-.02em}.tick{font-size:9px;font-weight:500;fill:#6f8a78;opacity:.75}.dl{font-size:10px;font-weight:600}.rule{stroke:#13201a;stroke-width:1;fill:none}.grid{stroke:#13201a;stroke-width:1;fill:none;opacity:.7}.ln{fill:none;stroke:#35d67a;stroke-width:2;stroke-linecap:round;stroke-linejoin:round}.ring{stroke:#050806;stroke-width:2}.hollow{fill:none;stroke-width:1.5}.sq{fill:#c8e6d0;opacity:.035}</style>
<rect class="bg" width="470" height="210" rx="16"/>
<line class="grid" x1="0" y1="42" x2="470" y2="42" opacity=".5"/><line class="grid" x1="0" y1="84" x2="470" y2="84" opacity=".5"/><line class="grid" x1="0" y1="126" x2="470" y2="126" opacity=".5"/><line class="grid" x1="0" y1="168" x2="470" y2="168" opacity=".5"/>
<g class="acc" transform="translate(24.0,22.8) scale(0.2000)"><path d="M50 8c-8.8 0-16 7.2-16 16 0 5.2 2.5 9.9 6.4 12.8-2.1 1.2-3.9 2.8-5.3 4.7h29.8c-1.4-1.9-3.2-3.5-5.3-4.7C63.5 33.9 66 29.2 66 24c0-8.8-7.2-16-16-16zM37 46c.6 13.6-2.4 24.5-9 32.7h44c-6.6-8.2-9.6-19.1-9-32.7H37zM24 82h52c3.9 0 7 3.1 7 7v7H17v-7c0-3.9 3.1-7 7-7z"/></g>
<text class="lbl" x="50" y="39">BULLET</text>
<text class="cap" x="50" y="55">Rating history</text>
<text class="num" x="444" y="48" text-anchor="end" style="font-size:36px">702</text>
<path fill="#d03b3b" d="M414 67L418 61H410Z"/><text class="dl" x="444" y="68" text-anchor="end" fill="#d03b3b">-44</text>
<line class="grid" x1="60" y1="84" x2="444" y2="84"/><line class="grid" x1="60" y1="148" x2="444" y2="148"/>
<text class="tick" x="52" y="87" text-anchor="end">754</text>
<text class="tick" x="52" y="151" text-anchor="end">694</text>
<path class="ln" d="M60.0 97.1C63.4 98.4 73.5 104.7 80.2 104.8C86.9 105.0 93.7 100.4 100.4 97.9C107.2 95.5 113.9 90.5 120.6 90.2C127.4 89.9 134.1 94.1 140.8 96.2C147.6 98.4 154.3 103.1 161.1 103.1C167.8 103.1 174.5 96.5 181.3 96.2C188.0 95.9 194.7 101.7 201.5 101.4C208.2 101.1 214.9 94.5 221.7 94.5C228.4 94.5 235.2 99.4 241.9 101.4C248.6 103.4 255.4 104.4 262.1 106.5C268.8 108.7 275.6 112.1 282.3 114.3C289.1 116.4 295.8 117.4 302.5 119.4C309.3 121.4 316.0 124.0 322.7 126.3C329.5 128.6 336.2 131.8 342.9 133.2C349.7 134.6 356.4 133.6 363.2 134.9C369.9 136.2 376.6 141.1 383.4 140.9C390.1 140.8 396.8 133.9 403.6 134.1C410.3 134.2 417.1 141.7 423.8 141.8C430.5 141.9 440.6 136.1 444.0 134.9"/>
<circle class="acc ring" cx="444.0" cy="134.9" r="3.8"/>
<rect x="26.0" y="164" width="8.5" height="8.5" rx="1.5" fill="#35d67a"/><rect x="38.5" y="164.6" width="7.3" height="7.3" rx="1.2" fill="none" stroke="#6f8a78" stroke-width="1.2" opacity=".55"/><rect x="49.8" y="164" width="8.5" height="8.5" rx="1.5" fill="#35d67a"/><rect x="61.7" y="164" width="8.5" height="8.5" rx="1.5" fill="#35d67a"/><rect x="74.2" y="164.6" width="7.3" height="7.3" rx="1.2" fill="none" stroke="#6f8a78" stroke-width="1.2" opacity=".55"/><rect x="86.1" y="164.6" width="7.3" height="7.3" rx="1.2" fill="none" stroke="#6f8a78" stroke-width="1.2" opacity=".55"/><rect x="97.4" y="164" width="8.5" height="8.5" rx="1.5" fill="#35d67a"/><rect x="109.9" y="164.6" width="7.3" height="7.3" rx="1.2" fill="none" stroke="#6f8a78" stroke-width="1.2" opacity=".55"/><rect x="121.2" y="164" width="8.5" height="8.5" rx="1.5" fill="#35d67a"/><rect x="133.7" y="164.6" width="7.3" height="7.3" rx="1.2" fill="none" stroke="#6f8a78" stroke-width="1.2" opacity=".55"/><rect x="145.6" y="164.6" width="7.3" height="7.3" rx="1.2" fill="none" stroke="#6f8a78" stroke-width="1.2" opacity=".55"/><rect x="157.5" y="164.6" width="7.3" height="7.3" rx="1.2" fill="none" stroke="#6f8a78" stroke-width="1.2" opacity=".55"/><rect x="169.4" y="164.6" width="7.3" height="7.3" rx="1.2" fill="none" stroke="#6f8a78" stroke-width="1.2" opacity=".55"/><rect x="181.3" y="164.6" width="7.3" height="7.3" rx="1.2" fill="none" stroke="#6f8a78" stroke-width="1.2" opacity=".55"/><rect x="193.2" y="164.6" width="7.3" height="7.3" rx="1.2" fill="none" stroke="#6f8a78" stroke-width="1.2" opacity=".55"/><rect x="204.5" y="164" width="8.5" height="8.5" rx="1.5" fill="#35d67a" opacity=".34"/><rect x="217.0" y="164.6" width="7.3" height="7.3" rx="1.2" fill="none" stroke="#6f8a78" stroke-width="1.2" opacity=".55"/><rect x="228.3" y="164" width="8.5" height="8.5" rx="1.5" fill="#35d67a"/><rect x="240.8" y="164.6" width="7.3" height="7.3" rx="1.2" fill="none" stroke="#6f8a78" stroke-width="1.2" opacity=".55"/><rect x="252.1" y="164" width="8.5" height="8.5" rx="1.5" fill="#35d67a"/>
<rect x="364" y="165" width="8" height="8" rx="1.5" fill="#35d67a"/><text class="tick" x="376" y="172">W</text><rect x="392" y="165" width="8" height="8" rx="1.5" fill="#35d67a" opacity=".34"/><text class="tick" x="404" y="172">D</text><rect x="420.6" y="165.6" width="6.8" height="6.8" rx="1.2" fill="none" stroke="#6f8a78" stroke-width="1.2" opacity=".55"/><text class="tick" x="432" y="172">L</text>
<line class="rule" x1="26" y1="186" x2="444" y2="186"/>
<text class="cap" x="26" y="202">52% win · 388 games</text>
<text class="cap" x="444" y="202" text-anchor="end">peak 801</text>
</svg>