<?xml version="1.0" encoding="UTF-8"?>
<svg viewBox="0 0 470 210" width="470" height="210" xmlns="http://www.w3.org/2000/svg" role="img" aria-label="BLITZ rating history, currently 774, 51% win rate over 682 games">
<style>svg{font-family:-apple-system,BlinkMacSystemFont,'Segoe UI',Roboto,'Helvetica Neue',Arial,sans-serif}text{fill:#f4f5f7;white-space:pre}.bg{fill:#111317}.acc{fill:#8ac054}.win{fill:#1baf7a}.draw{fill:#8b8f96}.loss{fill:#d03b3b}.lbl{font-size:10px;font-weight:600;letter-spacing:.18em;fill:#8d949d}.cap{font-size:10.5px;font-weight:500;fill:#8d949d}.num{font-family:-apple-system,BlinkMacSystemFont,'Segoe UI',Roboto,'Helvetica Neue',Arial,sans-serif;font-weight:700;letter-spacing:-.02em}.tick{font-size:9px;font-weight:500;fill:#8d949d;opacity:.75}.dl{font-size:10px;font-weight:600}.rule{stroke:#22262d;stroke-width:1;fill:none}.grid{stroke:#22262d;stroke-width:1;fill:none;opacity:.7}.ln{fill:none;stroke:#8ac054;stroke-width:2;stroke-linecap:round;stroke-linejoin:round}.ring{stroke:#111317;stroke-width:2}.hollow{fill:none;stroke-width:1.5}.sq{fill:#f4f5f7;opacity:.035}</style>
<rect class="bg" width="470" height="210" rx="16"/>

<g class="acc" transform="translate(24.0,22.8) scale(0.2000)"><path fill-rule="evenodd" d="M66 5l-4 17c9 10 16 27 16 58H34c0-8-1-14-4-20-6 3-13 2-16-2-3-3-3-8 0-12 3-5 6-10 10-14 6-6 13-10 21-11 7-1 14 0 21 4zM37.4 39a3.4 3.4 0 1 0-6.8 0 3.4 3.4 0 1 0 6.8 0zM24 82h52c3.9 0 7 3.1 7 7v7H17v-7c0-3.9 3.1-7 7-7z"/></g>
<text class="lbl" x="50" y="39">BLITZ</text>
<text class="cap" x="50" y="55">Rating history</text>
<text class="num" x="444" y="48" text-anchor="end" style="font-size:36px">774</text>
<path fill="#1baf7a" d="M414 61L418 67H410Z"/><text class="dl" x="444" y="68" text-anchor="end" fill="#1baf7a">+80</text>
<line class="grid" x1="60" y1="84" x2="444" y2="84"/><line class="grid" x1="60" y1="148" x2="444" y2="148"/>
<text class="tick" x="52" y="87" text-anchor="end">774</text>
<text class="tick" x="52" y="151" text-anchor="end">694</text>
<path class="ln" d="M60.0 141.8C63.4 140.9 73.5 138.4 80.2 136.6C86.9 134.9 93.7 133.2 100.4 131.5C107.2 129.8 113.9 128.2 120.6 126.3C127.4 124.5 134.1 122.3 140.8 120.5C147.6 118.7 154.3 117.2 161.1 115.4C167.8 113.5 174.5 109.7 181.3 109.5C188.0 109.4 194.7 113.0 201.5 114.7C208.2 116.4 214.9 118.0 221.7 119.9C228.4 121.7 235.2 125.5 241.9 125.7C248.6 125.9 255.4 120.8 262.1 121.2C268.8 121.5 275.6 127.4 282.3 127.6C289.1 127.8 295.8 123.2 302.5 122.5C309.3 121.7 316.0 123.8 322.7 123.1C329.5 122.3 336.2 119.7 342.9 117.9C349.7 116.2 356.4 114.6 363.2 112.8C369.9 110.9 376.6 108.8 383.4 107.0C390.1 105.1 396.8 103.5 403.6 101.8C410.3 100.1 417.1 98.6 423.8 96.6C430.5 94.7 440.6 91.3 444.0 90.2"/>
<circle class="acc ring" cx="444.0" cy="90.2" r="3.8"/>
<rect x="26.6" y="164.6" width="7.3" height="7.3" rx="1.2" fill="none" stroke="#8d949d" stroke-width="1.2" opacity=".55"/><rect x="37.9" y="164" width="8.5" height="8.5" rx="1.5" fill="#8ac054"/><rect x="49.8" y="164" width="8.5" height="8.5" rx="1.5" fill="#8ac054"/><rect x="61.7" y="164" width="8.5" height="8.5" rx="1.5" fill="#8ac054"/><rect x="73.6" y="164" width="8.5" height="8.5" rx="1.5" fill="#8ac054"/><rect x="85.5" y="164" width="8.5" height="8.5" rx="1.5" fill="#8ac054"/><rect x="97.4" y="164" width="8.5" height="8.5" rx="1.5" fill="#8ac054"/><rect x="109.9" y="164.6" width="7.3" height="7.3" rx="1.2" fill="none" stroke="#8d949d" stroke-width="1.2" opacity=".55"/><rect x="121.8" y="164.6" width="7.3" height="7.3" rx="1.2" fill="none" stroke="#8d949d" stroke-width="1.2" opacity=".55"/><rect x="133.7" y="164.6" width="7.3" height="7.3" rx="1.2" fill="none" stroke="#8d949d" stroke-width="1.2" opacity=".55"/><rect x="145.0" y="164" width="8.5" height="8.5" rx="1.5" fill="#8ac054"/><rect x="157.5" y="164.6" width="7.3" height="7.3" rx="1.2" fill="none" stroke="#8d949d" stroke-width="1.2" opacity=".55"/><rect x="168.8" y="164" width="8.5" height="8.5" rx="1.5" fill="#8ac054"/><rect x="180.7" y="164" width="8.5" height="8.5" rx="1.5" fill="#8ac054" opacity=".34"/><rect x="192.6" y="164" width="8.5" height="8.5" rx="1.5" fill="#8ac054"/><rect x="204.5" y="164" width="8.5" height="8.5" rx="1.5" fill="#8ac054"/><rect x="216.4" y="164" width="8.5" height="8.5" rx="1.5" fill="#8ac054"/><rect x="228.3" y="164" width="8.5" height="8.5" rx="1.5" fill="#8ac054"/><rect x="240.2" y="164" width="8.5" height="8.5" rx="1.5" fill="#8ac054"/><rect x="252.1" y="164" width="8.5" height="8.5" rx="1.5" fill="#8ac054"/>
<rect x="364" y="165" width="8" height="8" rx="1.5" fill="#8ac054"/><text class="tick" x="376" y="172">W</text><rect x="392" y="165" width="8" height="8" rx="1.5" fill="#8ac054" opacity=".34"/><text class="tick" x="404" y="172">D</text><rect x="420.6" y="165.6" width="6.8" height="6.8" rx="1.2" fill="none" stroke="#8d949d" stroke-width="1.2" opacity=".55"/><text class="tick" x="432" y="172">L</text>
<line class="rule" x1="26" y1="186" x2="444" y2="186"/>
<text class="cap" x="26" y="202">51% win · 682 games</text>
<text class="cap" x="444" y="202" text-anchor="end">peak 937</text>
</svg>