<?xml version="1.0" encoding="UTF-8"?>
<svg viewBox="0 0 470 210" width="470" height="210" xmlns="http://www.w3.org/2000/svg" role="img" aria-label="RAPID rating history">
<defs>
<filter id="bE2" x="-60%" y="-60%" width="220%" height="220%"><feGaussianBlur stdDeviation="18"/></filter>
<radialGradient id="gE2" cx="80%" cy="10%" r="90%"><stop offset="0" stop-color="#1b2550"/><stop offset="1" stop-color="#0c1225"/></radialGradient>
</defs>
<style>text{fill:#e7eaf6}.bg{fill:#0c1225}.acc{fill:#8098ff}.ln{stroke:#8098ff}.area{fill:#8098ff;opacity:.14}.peak{stroke:#8098ff;opacity:.3}.chip{fill:#8098ff;opacity:.14}.down{fill:#e0715a}.panel{fill:#fff;opacity:.045}.stroke{stroke:#fff;opacity:.08;fill:none}svg{font-family:'Space Grotesk',system-ui,sans-serif}.lbl{font-weight:600;font-size:11px;letter-spacing:.16em}.big{font-weight:700;font-size:34px;letter-spacing:-.02em}.mid{font-weight:600;font-size:14px}.mut{font-weight:500;font-size:11px;opacity:.5}.ser{font-family:'Instrument Serif',serif;font-weight:400;letter-spacing:0}.mono{font-family:'JetBrains Mono',monospace}.ln{fill:none;stroke-width:2.5;stroke-linecap:round;stroke-linejoin:round}.thin{stroke-width:1.6}.draw{stroke-dasharray:1200;stroke-dashoffset:1200;animation:draw 2.3s cubic-bezier(.6,.05,.2,1) forwards .25s}.dot{animation:pulse 2s ease-in-out infinite}.glow{animation:glow 3.4s ease-in-out infinite}.float{animation:float 6.5s ease-in-out infinite}.shim{animation:shim 3s ease-in-out infinite}@keyframes draw{to{stroke-dashoffset:0}}@keyframes pulse{0%,100%{r:4.5;opacity:1}50%{r:8;opacity:.45}}@keyframes glow{0%,100%{opacity:.14}50%{opacity:.34}}@keyframes float{0%,100%{transform:translateY(0)}50%{transform:translateY(-7px)}}@keyframes shim{0%,100%{opacity:.5}50%{opacity:1}}</style>
<rect width="470" height="210" rx="20" fill="url(#gE2)"/>
<ellipse class="acc glow" cx="410" cy="80" rx="80" ry="60" filter="url(#bE2)"/>
<text class="mut" x="26" y="34">RAPID · RATING HISTORY</text>
<text class="big" x="446" y="40" text-anchor="end" style="font-size:30px">1215</text>
<text class="down mid" x="446" y="58" text-anchor="end">▼ -8</text>
<rect class="panel" x="18" y="66" width="434" height="128" rx="14"/>
<rect class="stroke" x="18" y="66" width="434" height="128" rx="14"/>
<line class="peak" x1="44" y1="82" x2="446" y2="82" stroke-dasharray="4 5"/>
<text class="mut" x="44" y="78" style="font-size:9px">PEAK 1235</text>
<polygon class="area" points="44.0,93.1 65.2,110.6 86.3,110.6 107.5,128.1 128.6,143.6 149.8,159.2 170.9,174.7 192.1,159.2 213.3,141.7 234.4,128.1 255.6,110.6 276.7,97.0 297.9,118.4 319.1,102.8 340.2,87.3 361.4,108.6 382.5,91.1 403.7,108.6 424.8,118.4 446.0,108.6 446.0,182 44.0,182"/>
<polyline class="ln draw" points="44.0,93.1 65.2,110.6 86.3,110.6 107.5,128.1 128.6,143.6 149.8,159.2 170.9,174.7 192.1,159.2 213.3,141.7 234.4,128.1 255.6,110.6 276.7,97.0 297.9,118.4 319.1,102.8 340.2,87.3 361.4,108.6 382.5,91.1 403.7,108.6 424.8,118.4 446.0,108.6"/>
<circle class="acc dot" cx="446.0" cy="108.6" r="4.5"/>
</svg>